<?xml version="1.0" encoding="UTF-8"?>
<svg version="1.1" xmlns="http://www.w3.org/2000/svg" width="365" height="364">
    <path d="M0 0 C6.82115532 3.93102295 11.28740562 9.35385208 13.5625 16.9375 C14.39297118 23.68379678 13.78564917 28.77803947 10.33984375 34.671875 C7.83382058 41.97586214 12.87792909 51.16858584 15.73291016 57.95898438 C16.49128272 59.76765161 17.20693208 61.59408044 17.91796875 63.421875 C19.51290728 66.72292741 20.66624477 68.67307115 23.5625 70.9375 C29.08095319 72.6415593 35.01784244 72.44981505 40.5625 70.9375 C43.95283793 68.9092452 45.05228949 66.51900616 46.5625 62.9375 C47.078125 61.86113281 47.59375 60.78476563 48.125 59.67578125 C49.74426404 56.13753363 51.18230834 52.57508969 52.5625 48.9375 C52.95308594 47.9371875 53.34367188 46.936875 53.74609375 45.90625 C55.50421701 40.84839124 55.50421701 40.84839124 54.84765625 35.6796875 C54.11027208 34.21541573 53.35065991 32.76214645 52.5703125 31.3203125 C50.15771807 25.61611637 50.8026918 18.54202533 52.5625 12.6875 C55.23306403 6.65353694 60.26535366 2.37884672 65.75 -1.0625 C74.31880774 -3.31005613 82.54088231 -3.21882643 90.3359375 1.25 C95.76923338 5.36786635 100.31506182 11.14589213 101.5625 17.9375 C102.53154319 25.64946871 101.09435681 31.580456 96.5625 37.9375 C94.29264219 40.20735781 91.96752467 42.25205825 89.453125 44.24609375 C87.30340284 45.88780586 87.30340284 45.88780586 86.5625 48.9375 C86.4779613 51.3785776 86.44644214 53.79009213 86.46484375 56.23046875 C86.4662587 56.93649734 86.46767365 57.64252594 86.46913147 58.36994934 C86.47472236 60.62167626 86.48727312 62.87330321 86.5 65.125 C86.50501618 66.65299335 86.50957888 68.18098827 86.51367188 69.70898438 C86.5246888 73.45186135 86.54194713 77.19466373 86.5625 80.9375 C86.94849365 80.41220703 87.3344873 79.88691406 87.73217773 79.34570312 C97.37300469 66.33797748 108.98889287 57.01425067 124.5625 51.9375 C125.80580078 51.49083984 125.80580078 51.49083984 127.07421875 51.03515625 C151.32547699 43.52799072 179.26729223 50.94904352 201.1484375 61.99609375 C203.5625 63.9375 203.5625 63.9375 204.54296875 66.7109375 C204.62974685 81.04667994 194.57294458 95.63732511 185.5625 105.9375 C185.00820313 106.57558594 184.45390625 107.21367188 183.8828125 107.87109375 C173.26108291 119.28055926 158.46672811 124.73601123 143.5625 127.9375 C142.75296875 128.12699219 141.9434375 128.31648437 141.109375 128.51171875 C138.11746175 129.01190057 135.28180641 129.03331655 132.25 129 C131.18136719 128.99097656 130.11273438 128.98195312 129.01171875 128.97265625 C127.79935547 128.95525391 127.79935547 128.95525391 126.5625 128.9375 C126.88863281 129.77410156 127.21476562 130.61070312 127.55078125 131.47265625 C135.99253004 153.95908446 137.75877336 177.79983164 130.5625 200.9375 C130.36414551 201.57848633 130.16579102 202.21947266 129.96142578 202.87988281 C124.40340219 220.168564 115.8361139 236.61073163 106.3125 252 C105.71252197 252.97501465 105.11254395 253.9500293 104.49438477 254.95458984 C99.93107957 262.36068254 99.93107957 262.36068254 98.34130859 264.84863281 C92.41544373 274.22734208 91.13807599 283.86560043 89.3996582 294.66796875 C86.96621109 309.4293601 82.25982822 322.37596719 69.9375 331.6875 C53.89640227 342.16282291 34.48056471 343.99439406 15.9375 340.875 C3.06088956 337.98933254 -8.46233529 331.97081346 -16.0625 321 C-22.23088035 310.69176706 -24.47570917 300.20287087 -26.25 288.5 C-27.89203937 278.05551117 -30.96339516 269.92811244 -36.4375 260.9375 C-36.85451172 260.24946289 -37.27152344 259.56142578 -37.70117188 258.85253906 C-39.50522698 255.8917978 -41.32173516 252.93908723 -43.15185547 249.99438477 C-61.73642865 219.92320189 -76.74327076 185.77045089 -69.25756836 149.6496582 C-67.4265045 142.12018974 -64.73360959 134.94848719 -61.4375 127.9375 C-62.41847656 127.98390625 -63.39945312 128.0303125 -64.41015625 128.078125 C-82.31163832 128.66887391 -100.19272052 123.52919954 -113.875 111.5625 C-115.41657944 110.04157825 -116.93805091 108.49997322 -118.4375 106.9375 C-119.20449219 106.20144531 -119.97148438 105.46539062 -120.76171875 104.70703125 C-129.43887282 95.9120211 -137.70377477 81.31354873 -139.1875 68.8125 C-138.36669083 64.57165264 -138.12749146 64.17859056 -134.8125 61.8125 C-133.04633552 60.80794277 -131.25135785 59.85313743 -129.4375 58.9375 C-128.46683594 58.421875 -127.49617188 57.90625 -126.49609375 57.375 C-106.42647974 47.71453597 -79.7879764 45.26127548 -58.4375 51.9375 C-44.07087067 57.2540489 -31.64417928 65.45967965 -22.4375 77.9375 C-22.4375 78.5975 -22.4375 79.2575 -22.4375 79.9375 C-21.7775 79.9375 -21.1175 79.9375 -20.4375 79.9375 C-20.57864675 76.16647636 -20.7263013 72.3957328 -20.875 68.625 C-20.91431641 67.57248047 -20.95363281 66.51996094 -20.99414062 65.43554688 C-21.26848364 58.57697152 -21.74430652 51.76651897 -22.4375 44.9375 C-23.22753418 44.63803467 -24.01756836 44.33856934 -24.83154297 44.0300293 C-29.89316533 41.90797945 -32.56367258 37.39387904 -35.3125 32.8125 C-37.73596091 26.3837983 -37.72023646 17.93894334 -35 11.625 C-27.55222721 -0.9032178 -13.49583125 -6.21626167 0 0 Z "
          fill="#060503" transform="translate(149.4375,13.0625)"/>
    <path d="M0 0 C1.2065625 0.0309375 1.2065625 0.0309375 2.4375 0.0625 C2.1075 0.7225 1.7775 1.3825 1.4375 2.0625 C0.7486784 9.5040317 0.82376856 15.03901729 5.4375 21.0625 C9.71590765 25.07350717 14.4561757 25.42375727 20.125 25.33984375 C24.09701366 24.86347049 26.21388971 23.46440571 29.4375 21.0625 C33.79446587 15.44430717 34.80427923 11.07362613 34.4375 4.0625 C34.02018982 1.70720719 34.02018982 1.70720719 33.4375 0.0625 C40.0179044 0.67506233 45.91450726 2.74833073 52.125 4.9375 C53.15689453 5.28941406 54.18878906 5.64132813 55.25195312 6.00390625 C56.74178711 6.52404297 56.74178711 6.52404297 58.26171875 7.0546875 C59.15979248 7.36776855 60.05786621 7.68084961 60.9831543 8.00341797 C63.46941196 9.07627043 65.35024406 10.35123585 67.4375 12.0625 C66.509375 12.784375 65.58125 13.50625 64.625 14.25 C61.00266031 17.34140574 58.70134768 19.66954812 58.15625 24.61328125 C57.97701165 30.13232877 58.13337699 34.43672779 61.4375 39.0625 C65.39589308 43.03170836 68.9714745 45.17733776 74.625 45.4375 C79.91223484 45.35999982 83.54932991 43.60837069 87.4375 40.0625 C89.11097464 37.78091768 90.22367454 35.6418791 91.4375 33.0625 C92.0975 33.0625 92.7575 33.0625 93.4375 33.0625 C95.10394821 35.30317726 96.62747102 37.52570802 98.125 39.875 C98.76791992 40.83889648 98.76791992 40.83889648 99.42382812 41.82226562 C100.51425699 43.51673239 101.48465165 45.28701901 102.4375 47.0625 C102.1075 48.0525 101.7775 49.0425 101.4375 50.0625 C100.426875 49.98 99.41625 49.8975 98.375 49.8125 C92.94276681 50.15740369 89.49625514 51.81187095 85.88671875 55.7578125 C82.64546368 60.26817871 81.73263311 64.20238776 81.99609375 69.7265625 C82.66636291 73.27365064 84.19872551 75.26403188 86.4375 78.0625 C86.4375 78.7225 86.4375 79.3825 86.4375 80.0625 C91.06550349 81.93871763 94.78975711 83.21559765 99.8125 83.25 C100.74835938 83.26417969 101.68421875 83.27835937 102.6484375 83.29296875 C105.59868154 83.04918108 107.76114112 82.29362508 110.4375 81.0625 C111.38174115 115.50981614 97.17017773 144.43167816 78.6875 172.9375 C72.56436247 182.38503238 68.74680861 191.31827541 67.0949707 202.46435547 C64.85479907 217.52994607 62.60555436 230.66328422 50.4375 241.0625 C47.23832019 243.23899118 44.06580597 244.73428085 40.4375 246.0625 C39.591875 246.37960937 38.74625 246.69671875 37.875 247.0234375 C22.60277129 251.75262196 4.56824343 250.34429516 -9.875 243.8125 C-19.99290844 238.34818086 -24.93391453 229.94233314 -28.1875 219.125 C-29.07842866 215.63552942 -29.71861229 212.15805863 -30.234375 208.59765625 C-30.35216309 207.78997803 -30.46995117 206.9822998 -30.59130859 206.15014648 C-30.8134679 204.56980733 -31.02084713 202.98727935 -31.20947266 201.40258789 C-32.90673711 188.96346078 -38.65963486 178.65453992 -45.375 168.25 C-51.37741369 158.76273041 -56.8323851 149.24446094 -61.5625 139.0625 C-62.17689318 137.81502613 -62.79412317 136.56894574 -63.4140625 135.32421875 C-72.24901059 117.37270279 -75.98376587 100.02582142 -75.5625 80.0625 C-70.8125 81.9375 -70.8125 81.9375 -68.5625 83.0625 C-61.39468896 83.78760195 -56.37816851 83.42425138 -50.5625 79.0625 C-46.35132513 74.43020764 -46.22569615 69.81633613 -46.2734375 63.79296875 C-46.67345134 60.01445961 -48.08693116 57.89172153 -50.5625 55.0625 C-51.243125 54.19625 -51.243125 54.19625 -51.9375 53.3125 C-56.35261691 49.91625623 -61.19422822 49.84776913 -66.5625 50.0625 C-65.90186021 46.62398929 -64.55041416 44.05255491 -62.75 41.0625 C-61.99783203 39.7940625 -61.99783203 39.7940625 -61.23046875 38.5 C-59.55015613 36.04446118 -57.72918681 34.09288764 -55.5625 32.0625 C-55.25957031 32.59359375 -54.95664063 33.1246875 -54.64453125 33.671875 C-51.48653771 38.99673795 -48.66841459 43.02719514 -42.5625 45.0625 C-36.58167163 45.8882554 -32.23579122 45.13355939 -27.29296875 41.6015625 C-23.69532865 38.4018555 -21.91591687 35.38179818 -21.1875 30.6015625 C-20.91404687 24.91031928 -21.68376429 21.45159568 -25.5625 17.0625 C-27.50111078 15.27992374 -29.47420397 13.6761833 -31.5625 12.0625 C-29.04496382 9.03263068 -26.55934034 8.19166247 -22.8359375 7.0546875 C-21.7221875 6.70792969 -20.6084375 6.36117187 -19.4609375 6.00390625 C-17.71683594 5.47603516 -17.71683594 5.47603516 -15.9375 4.9375 C-13.63203083 4.22910143 -11.32729917 3.51829663 -9.0234375 2.8046875 C-8.00040527 2.4938623 -6.97737305 2.18303711 -5.92333984 1.86279297 C-0.4613519 0.01125249 -0.4613519 0.01125249 0 0 Z "
          fill="#FDA602" transform="translate(163.5625,95.9375)"/>
    <path d="M0 0 C6.6502348 5.45144248 13.32987311 11.63898485 14.4375 20.5 C13.65504242 34.36838603 10.22892958 47.65865486 0.48046875 57.8046875 C-3.35843131 61.2022652 -7.20546755 63.24485866 -12 65 C-12.845625 65.31710937 -13.69125 65.63421875 -14.5625 65.9609375 C-29.83472871 70.69012196 -47.86925657 69.28179516 -62.3125 62.75 C-72.57225183 57.20907634 -77.40787006 48.67619402 -80.75 37.75 C-84.94046128 20.4245256 -84.94046128 20.4245256 -80.6875 12.6875 C-72.31382512 0.96435516 -60.34077348 -6.4467563 -46.33203125 -9.53125 C-29.61025167 -11.88366917 -14.45317297 -9.03323311 0 0 Z "
          fill="#FDD3A6" transform="translate(216,277)"/>
    <path d="M0 0 C1.13953125 0.43183594 2.2790625 0.86367187 3.453125 1.30859375 C7.562639 2.94947789 11.31299635 4.54199757 15 7 C11.24104687 22.85920224 2.29659942 36.6287604 -11.1875 45.875 C-19.92645319 51.00520561 -29.91595476 54.90509824 -40 56 C-40.71526855 56.09297363 -41.43053711 56.18594727 -42.16748047 56.28173828 C-56.10089679 57.92044641 -56.10089679 57.92044641 -60.68945312 54.88085938 C-63.66304495 51.89090666 -65.74184395 48.32886197 -67.88623047 44.72314453 C-72.53017814 37.53836096 -80.01370912 31.80063563 -87 27 C-80.35805876 13.20519897 -68.21666249 3.853068 -54 -1.5 C-37.77309419 -6.97658071 -15.88246943 -6.14359203 0 0 Z "
          fill="#F9A601" transform="translate(329,76)"/>
    <path d="M0 0 C6.2226613 5.46698579 12.21291665 10.91489288 15.10546875 18.7890625 C14.07099609 19.49869141 14.07099609 19.49869141 13.015625 20.22265625 C3.94093251 26.60855096 -3.09930053 32.97531233 -9.08203125 42.3515625 C-11.64456281 45.8588883 -12.87481521 47.52579036 -17.1171875 48.62109375 C-20.8112338 48.66609321 -24.24152748 48.33010198 -27.89453125 47.7890625 C-28.99410156 47.68464844 -30.09367187 47.58023438 -31.2265625 47.47265625 C-47.96826311 45.54948629 -63.02868221 37.68840691 -73.89453125 24.7890625 C-80.02635457 16.38664322 -84.61641677 8.16434473 -85.89453125 -2.2109375 C-59.85164249 -15.79853164 -24.42978759 -18.66026961 0 0 Z "
          fill="#F8A601" transform="translate(106.89453125,84.2109375)"/>
    <path d="M0 0 C48.31209895 -1.16339221 48.31209895 -1.16339221 62.875 11.5 C66.01169006 15.19022361 67.84026852 17.53579474 68.375 22.4375 C67.69607662 28.88727213 64.86498136 32.83001598 60 37 C53.25260286 40.28158394 45.75558621 40.00928672 38.61328125 38.08984375 C23.58415414 32.55841354 13.88857513 23.96237803 3.875 11.75 C3.37685791 11.15960938 2.87871582 10.56921875 2.36547852 9.9609375 C0.9921875 8.234375 0.9921875 8.234375 -1 5 C-0.62451172 2.29785156 -0.62451172 2.29785156 0 0 Z "
          fill="#070400" transform="translate(36,84)"/>
    <path d="M0 0 C1.4296811 0.01006818 2.85936921 0.01918712 4.2890625 0.02734375 C7.73452479 0.0490114 11.1797146 0.08332057 14.625 0.125 C15.24291992 1.93554688 15.24291992 1.93554688 15.625 4.125 C14.15137392 6.49256488 12.70413009 8.49369722 10.9375 10.625 C10.18907837 11.54442383 10.18907837 11.54442383 9.42553711 12.48242188 C1.06492493 22.5855342 -6.85105933 31.262162 -19.375 36.125 C-20.21804688 36.46144531 -21.06109375 36.79789063 -21.9296875 37.14453125 C-28.73047184 39.52371938 -36.58115697 40.72581652 -43.55078125 38.3984375 C-48.41781247 35.83464803 -51.64635988 32.31092037 -53.375 27.125 C-53.90071713 22.60038532 -53.83234569 19.09685958 -51.875 14.9375 C-38.56124633 -0.04047288 -18.68951906 -0.23317903 0 0 Z "
          fill="#060400" transform="translate(314.375,83.875)"/>
    <path d="M0 0 C4.82689573 2.36570934 7.78758012 6.51607049 9.77734375 11.37109375 C10.87740025 16.87137627 9.53269464 21.57145027 6.77734375 26.37109375 C2.12508849 31.15257832 -1.2233809 33.52409595 -7.97265625 33.68359375 C-13.25364834 33.63305794 -16.22904692 33.06518238 -20.22265625 29.37109375 C-24.9790522 24.10049283 -25.58199273 20.00846988 -25.5 13.09375 C-25.10594857 9.225386 -23.81309812 7.23421372 -21.22265625 4.37109375 C-20.41828125 3.42234375 -19.61390625 2.47359375 -18.78515625 1.49609375 C-13.71689659 -2.4990395 -5.88666889 -1.66564796 0 0 Z "
          fill="#6B3917" transform="translate(189.22265625,134.62890625)"/>
    <path d="M0 0 C4.90696797 2.6590832 8.26900559 6.70519356 10 12 C10.69809882 18.01741514 10.47155188 22.85252652 7 28 C3.84907534 31.54479024 1.78036991 33.6769475 -3.05078125 34.23828125 C-8.56058152 34.41908644 -11.75244276 33.85243563 -16 30 C-20.31707097 24.66046485 -20.67174955 19.89453972 -20.453125 13.1015625 C-19.62649136 7.44339776 -16.94494275 4.72266358 -12.8125 1.0625 C-8.48092206 -0.57387389 -4.55624218 -0.87428672 0 0 Z "
          fill="#050301" transform="translate(232,197)"/>
    <path d="M0 0 C4.43385171 2.7030292 8.1279112 6.08011447 10 11 C10.93156594 17.86417008 10.69447293 23.77432548 6.4765625 29.44140625 C2.9717189 33.14096338 -0.55498724 34.16369896 -5.5 34.4375 C-10.0326959 34.24705059 -12.61405235 33.14971874 -16 30 C-19.82386342 24.93725248 -20.64274637 19.8729294 -20.3828125 13.6171875 C-19.60382208 8.29143667 -17.33350664 5.23825616 -13.375 1.5625 C-8.76631477 -0.57115057 -4.98214365 -1.15739029 0 0 Z "
          fill="#050401" transform="translate(141,197)"/>
    <path d="M0 0 C1.984375 1.77734375 1.984375 1.77734375 3.75 3.9375 C4.34296875 4.64777344 4.9359375 5.35804687 5.546875 6.08984375 C8.33905396 9.76020803 8.45865598 12.73515202 8.40625 17.26171875 C7.59250341 22.74668376 4.45065437 26.83525531 0.359375 30.44921875 C-4.19358831 33.4809817 -8.75418417 33.7686177 -14 33 C-19.31806169 31.22731277 -23.04644716 27.71413971 -26 23 C-26.83203125 20.50390625 -26.83203125 20.50390625 -27 18 C-23.13626967 10.535273 -8.53803329 -2.6457678 0 0 Z "
          fill="#6D3A16" transform="translate(135,109)"/>
    <path d="M0 0 C1.21236328 0.01353516 1.21236328 0.01353516 2.44921875 0.02734375 C3.37154297 0.04474609 3.37154297 0.04474609 4.3125 0.0625 C11.11474476 15.28017009 12.92067906 30.52903968 12.3125 47.0625 C11.9825 47.0625 11.6525 47.0625 11.3125 47.0625 C11.3125 42.1125 11.3125 37.1625 11.3125 32.0625 C9.6625 33.0525 8.0125 34.0425 6.3125 35.0625 C0.27336549 36.06450886 -5.63772247 35.57790406 -10.9609375 32.4453125 C-14.94318233 29.2559128 -17.19322061 25.61492636 -18.1640625 20.6015625 C-18.53678066 14.22612025 -16.78564524 9.89764138 -12.6875 5.0625 C-8.57335472 1.24222224 -5.57609581 -0.08081298 0 0 Z "
          fill="#6C3A16" transform="translate(262.6875,144.9375)"/>
    <path d="M0 0 C0.99033234 0.00636726 0.99033234 0.00636726 2.00067139 0.01286316 C4.09982891 0.0295944 6.19800996 0.06723324 8.296875 0.10546875 C9.72394442 0.12052291 11.15102896 0.13421004 12.578125 0.14648438 C16.06802317 0.17947874 19.5573537 0.23122132 23.046875 0.29296875 C24.57593641 7.49074565 24.92794941 12.9499143 21.32421875 19.46484375 C18.65613018 23.28339252 15.50433013 25.80715037 11.046875 27.29296875 C5.07219211 27.89506858 0.34319863 27.34854007 -4.953125 24.29296875 C-8.59768022 20.83725058 -10.75959788 17.57722323 -11.19140625 12.48046875 C-11.21589844 11.42859375 -11.24039063 10.37671875 -11.265625 9.29296875 C-11.30300781 8.24109375 -11.34039062 7.18921875 -11.37890625 6.10546875 C-10.953125 3.29296875 -10.953125 3.29296875 -9.36108398 1.63549805 C-6.1088688 -0.17773639 -3.71180883 -0.04718401 0 0 Z "
          fill="#6C3A17" transform="translate(174.953125,94.70703125)"/>
    <path d="M0 0 C9.62781556 5.69249171 19.3840354 12.0444264 25 22 C21.45419661 28.0785201 18.68010148 32.39589264 12 35 C6.56283849 35.91746065 2.20438369 35.30565539 -2.4296875 32.27734375 C-6.65909646 28.83700363 -9.60091772 25.12698651 -10.30859375 19.58203125 C-10.60624355 13.18707049 -9.84176744 9.58917735 -5.703125 4.65625 C-3.91195753 2.91438071 -2.03267595 1.44938633 0 0 Z "
          fill="#6C3A16" transform="translate(231,107)"/>
    <path d="M0 0 C5.84143689 -0.30744405 9.78397085 0.00561289 15 3 C19.57551814 7.45185548 22.14386351 10.77567435 22.25 17.25 C22.17928554 22.66672767 21.5335716 26.45950607 17.5703125 30.43359375 C12.45171778 34.92828016 8.31394122 35.36540564 1.7421875 35.26953125 C-2.24145682 34.87797647 -4.27906878 33.94154727 -7 31 C-7.40158101 25.31093576 -6.648965 20.41666513 -5.1875 14.9375 C-5.02185547 14.26912109 -4.85621094 13.60074219 -4.68554688 12.91210938 C-3.52060166 8.38860513 -1.93018041 4.25303363 0 0 Z "
          fill="#6B3917" transform="translate(96,145)"/>
    <path d="M0 0 C34.08434033 -0.60624321 34.08434033 -0.60624321 45.828125 8.40234375 C47.1875 9.75 47.1875 9.75 49 12 C49.495 12.495 49.495 12.495 50 13 C49.7807132 16.87406672 49.5604155 19.29014036 47.125 22.375 C42.57792885 25.85217205 37.46945047 25.63025456 32 25 C18.2018744 21.27934461 8.73802422 13.00005972 0 2 C0 1.34 0 0.68 0 0 Z "
          fill="#6C3A16" transform="translate(47,91)"/>
    <path d="M0 0 C-6.59783321 12.10713502 -17.37327495 19.39467254 -30.00390625 24.125 C-34.68873471 25.4931898 -39.16735124 25.6178729 -44 25 C-47.00197464 23.19881522 -48.45166366 22.09667268 -50 19 C-50.38618192 15.52436271 -50.29052455 13.54143212 -48.625 10.4375 C-35.66936101 -1.59273621 -16.46223067 -0.46382531 0 0 Z "
          fill="#6C3A16" transform="translate(318,91)"/>
    <path d="M0 0 C4.80395729 2.11231517 7.53060842 4.46507176 9.85546875 9.30078125 C11.10820697 13.57227059 11.04433831 16.6161291 9.85546875 20.92578125 C7.11829072 25.54476918 4.05637071 29.17512025 -1.1328125 31 C-6.15462612 31.90685178 -9.67134828 30.83277161 -14.14453125 28.30078125 C-18.81938445 24.24924181 -20.91478809 21.63650334 -21.51953125 15.48828125 C-21.3504578 10.1376039 -19.34387629 6.50569425 -15.6015625 2.75390625 C-10.70713393 -1.23331702 -5.97452345 -1.94797759 0 0 Z "
          fill="#6B3A17" transform="translate(143.14453125,20.69921875)"/>
    <path d="M0 0 C5.41697155 1.84177033 8.96276493 5.23706319 12 10 C13.51796256 14.91105535 13.04226173 18.50310005 11.08984375 23.13671875 C8.73817773 27.15730904 5.41438815 29.52853728 1 31 C-4.08818127 31.62267953 -8.55586621 31.78986086 -12.9375 28.875 C-16.60654811 25.7770773 -18.61644468 22.66570946 -19.3125 17.828125 C-19.60489547 12.38225941 -18.64838544 9.24001551 -15 5 C-10.01547194 0.60886814 -6.66190649 -0.66120046 0 0 Z "
          fill="#6B3A17" transform="translate(229,20)"/>
    <path d="M0 0 C0.44730469 1.19496094 0.89460937 2.38992187 1.35546875 3.62109375 C5.55725847 14.86919616 5.55725847 14.86919616 11.15234375 25.46875 C12 27 12 27 12 29 C11.32195312 29.18175781 10.64390625 29.36351563 9.9453125 29.55078125 C2.58132783 31.53966908 -4.7620302 33.5873434 -12 36 C-12 25.44 -12 14.88 -12 4 C-2 0 -2 0 0 0 Z "
          fill="#F8A501" transform="translate(150,58)"/>
    <path d="M0 0 C1.2684375 0.433125 1.2684375 0.433125 2.5625 0.875 C6.0141129 2.00461877 9.50797719 3.0022792 13 4 C12.67 14.23 12.34 24.46 12 35 C4.18317767 33.19611792 -3.3904506 31.42200105 -11 29 C-10.25401552 24.98781322 -8.39861378 21.50933485 -6.625 17.875 C-3.83151939 12.04416914 -1.55566653 6.29674549 0 0 Z "
          fill="#FAA601" transform="translate(213,58)"/>
    <path d="M0 0 C4.10746873 1.77367968 6.69875485 4.16459142 9 8 C9.71782211 11.93206999 9.38527529 15.05821595 7.875 18.75 C4.57875265 22.70549682 1.63999354 24.76571521 -3.5 25.5 C-7.7336682 24.89519026 -9.77010591 23.78945399 -13 21 C-15.64201025 16.94891762 -16.70236884 13.8162435 -16 9 C-12.05142368 1.80795028 -8.3958202 -1.22334306 0 0 Z "
          fill="#6C3A16" transform="translate(222,152)"/>
    <path d="M0 0 C4.10746873 1.77367968 6.69875485 4.16459142 9 8 C9.61617063 12.85234374 9.53237687 14.95496392 7.3125 19.3125 C3.95077759 23.21936658 1.71357583 24.78190853 -3.4375 25.4375 C-7.7426591 24.90879625 -9.72712679 23.82657232 -13 21 C-15.64201025 16.94891762 -16.70236884 13.8162435 -16 9 C-12.05142368 1.80795028 -8.3958202 -1.22334306 0 0 Z "
          fill="#6C3A16" transform="translate(146,152)"/>
    <path d="M0 0 C4.4017891 1.43731889 6.9006483 3.63782905 9.875 7.125 C11.59977443 11.30076968 11.83281365 15.54426416 11.0625 20 C9.12801592 22.5586926 8.43224039 22.94373516 5.1875 23.4375 C1.20175897 22.87949626 -0.16704357 21.91626993 -2.9375 19 C-6.14638028 14.18145339 -7.84195278 9.87894308 -6.9375 4 C-4.82556314 0.75086637 -3.90414929 0 0 0 Z "
          fill="#090706" transform="translate(161.9375,278)"/>
    <path d="M0 0 C2.38370909 2.38370909 2.29588602 2.9936599 2.3125 6.25 C2.18318859 11.620734 0.45736865 15.00286519 -2.6875 19.3125 C-6.05329259 21.76861892 -8.87109567 21.72473971 -13 22 C-15.63574873 19.36425127 -16.01066083 17.90557548 -16.4375 14.125 C-16.26950558 9.82114283 -14.73697487 7.34519151 -12 4 C-11.4225 3.21625 -10.845 2.4325 -10.25 1.625 C-6.76804366 -0.88974625 -4.23438289 -0.40977899 0 0 Z "
          fill="#060504" transform="translate(204,279)"/>
    <path d="M0 0 C3.29714793 0.32971479 4.6226839 0.6226839 7 3 C6.44444444 7.55555556 6.44444444 7.55555556 5 9 C2 9.125 2 9.125 -1 9 C-2 8 -2 8 -2.1875 5.0625 C-2 2 -2 2 0 0 Z "
          fill="#EEEDEB" transform="translate(229,204)"/>
    <path d="M0 0 C2.625 0.375 2.625 0.375 5 1 C5.625 3.875 5.625 3.875 6 7 C4 9 4 9 1.5 9.25 C-1 9 -1 9 -3 7 C-2.67028521 3.70285207 -2.3773161 2.3773161 0 0 Z "
          fill="#F7F6F5" transform="translate(130,204)"/>
    <path d="M0 0 C-1.55500981 3.81684226 -4.03595495 6.19195732 -7 9 C-7.99 8.67 -8.98 8.34 -10 8 C-8.71451591 6.66070495 -7.42141845 5.32871357 -6.125 4 C-5.04605469 2.88625 -5.04605469 2.88625 -3.9453125 1.75 C-2 0 -2 0 0 0 Z "
          fill="#E4A201" transform="translate(257,86)"/>
    <path d="M0 0 C0.99 0.33 1.98 0.66 3 1 C-0.465 3.97 -0.465 3.97 -4 7 C-2.92598892 4.08482708 -2.22189824 2.22189824 0 0 Z "
          fill="#633318" transform="translate(227,110)"/>
</svg>
