<?xml version="1.0" encoding="UTF-8"?>
<svg version="1.0" viewBox="0 0 268.96 504.61" xmlns="http://www.w3.org/2000/svg">
<g transform="translate(-216.73 -178.06)">
<path transform="matrix(1.2168 0 0 1.2168 -76.15 -121.55)" d="m441.29 560.71c0.01482 49.728-40.294 90.048-90.022 90.048s-90.036-40.32-90.022-90.048c-0.01482-49.728 40.294-90.048 90.022-90.048s90.036 40.32 90.022 90.048z" fill="#fc0" stroke="#000" stroke-linecap="round" stroke-linejoin="round" stroke-width="3.2874"/>
<path transform="matrix(.42473 -.24473 .4879 .84676 78.434 337.3)" d="m93.338 349.05a18.031 15.556 0 1 1-36.062 0 18.031 15.556 0 1 1 36.062 0z" fill="#784421"/>
<path d="m454.19 523.12c0.07679 1.6816 0.125 3.3933 0.125 5.0938 0 60.464-49.067 109.53-109.53 109.53-47.262 0-87.591-29.999-102.94-71.969 2.6535 58.112 50.674 104.47 109.44 104.47 60.464 0 109.53-49.067 109.53-109.53 0-13.202-2.3382-25.87-6.625-37.594z" fill-opacity=".31373"/>
<path d="m359.45 671.28c0 9.0908 14.665 9.3814 32.735 9.3814s32.735 0.69349 32.735-9.3814c0-17.716-14.665-32.094-32.735-32.094s-32.735 14.378-32.735 32.094z" fill="#784421" stroke="#000" stroke-linecap="round" stroke-linejoin="round" stroke-width="4"/>
<path d="m404.78 680.06c0-16.368-9.4428-26.44-9.4428-26.44s3.7771 13.849 3.1476 26.44h6.2952z" fill-opacity=".31373" fill-rule="evenodd" stroke="#000" stroke-linejoin="round" stroke-width="4"/>
<path d="m298.74 487.34c24.5-37.901 20-128.73 20-128.73l60-3.2673s-1.5 91.485 23.5 130.04" fill="#fc0" fill-rule="evenodd" stroke="#000" stroke-linecap="round" stroke-linejoin="round" stroke-width="4"/>
<path transform="matrix(.58348 0 0 .95455 319.84 61.25)" d="m93.338 349.05a18.031 15.556 0 1 1-36.062 0 18.031 15.556 0 1 1 36.062 0z" fill="#784421"/>
<path transform="translate(216.73 178.06)" d="m162 177.28-17.156 0.9375-42.844 2.3438s0.24111 4.8545 0.3125 12.562c13.159 8.2563 26.42 13.062 35.719 13.062 3.3283 0 7.1053-0.5723 11.156-1.6562 6.1863 33.341 17.668 80.343 36.031 102.5l-1 0.34375 1.2812-0.03125c-17.207-26.536-21.834-78.152-23.062-107.75-0.13915-3.3512-0.24539-6.4361-0.3125-9.1562-0.05099-2.1738-0.07513-4.0973-0.09375-5.7812-0.01712-1.3569-0.02716-2.3769-0.03125-3.375-0.0047-1.5501-0.00601-1.748 0-2.4062 0.00247-1.0446 0-1.5938 0-1.5938z" fill-opacity=".31373" fill-rule="evenodd"/>
<path d="m351.27 208.57c-22.79 0-41.278 6.9679-54.875 18.594-0.57066-0.42629-1.3434-0.8054-2.3438-1.25-55.508-10.607-74.605 25.093-75.312 30.75s38.515 14.485 59.375-6.375c0.27075-0.27075 0.45453-0.45474 0.71875-0.71875-6.1713 12.024-9.4062 25.97-9.4062 40.844 0 45.174 56.126 81.844 81.844 81.844 26.717 0 81.844-36.669 81.844-81.844 0-15.041-3.463-29.135-9.9375-41.25 0.40783 0.40733 0.70122 0.70122 1.125 1.125 20.86 20.86 60.082 12.032 59.375 6.375s-19.773-41.357-75.281-30.75c-1.1728 0.52125-2.0848 0.95218-2.6562 1.4688-13.735-11.746-32.207-18.812-54.469-18.812z" fill="#fc0" stroke="#000" stroke-linecap="round" stroke-linejoin="round" stroke-width="4"/>
<path d="m347.64 278.41c0.00373 12.519-10.144 22.67-22.663 22.67-12.519 0-22.667-10.151-22.663-22.67-0.00373-12.519 10.144-22.67 22.663-22.67 12.519 0 22.666 10.151 22.663 22.67z" fill="#fff" stroke="#000" stroke-linecap="round" stroke-linejoin="round" stroke-width="4"/>
<path d="m400.38 278.41c0.00373 12.519-10.144 22.67-22.663 22.67-12.519 0-22.667-10.151-22.663-22.67-0.00373-12.519 10.144-22.67 22.663-22.67 12.519 0 22.666 10.151 22.663 22.67z" fill="#fff" stroke="#000" stroke-linecap="round" stroke-linejoin="round" stroke-width="4"/>
<path d="m380.23 282.41c0.00125 4.173-3.3813 7.5565-7.5542 7.5565s-7.5555-3.3835-7.5542-7.5565c-0.00125-4.173 3.3813-7.5565 7.5542-7.5565s7.5555 3.3835 7.5542 7.5565z"/>
<path d="m338.2 282.41c0.00125 4.173-3.3813 7.5565-7.5542 7.5565s-7.5555-3.3835-7.5542-7.5565c-0.00125-4.173 3.3813-7.5565 7.5542-7.5565s7.5555 3.3835 7.5542 7.5565z"/>
<path d="m425.69 251.49c1.7546 7.6324 2.625 15.723 2.625 24.125 0 45.174-55.127 81.844-81.844 81.844-20.706 2e-5 -61.097-23.756-76.062-56.594 7.6158 40.246 57.172 71.375 80.875 71.375 26.717 0 81.844-36.669 81.844-81.844 0-14.081-2.4127-27.332-7.4375-38.906z" fill-opacity=".31373"/>
<path d="m344.46 671.28c0 9.0908-14.665 9.3814-32.735 9.3814s-32.735 0.69349-32.735-9.3814c0-17.716 14.665-32.094 32.735-32.094s32.735 14.378 32.735 32.094z" fill="#784421" stroke="#000" stroke-linecap="round" stroke-linejoin="round" stroke-width="4"/>
<path d="m299.13 680.06c0-16.368 9.4428-26.44 9.4428-26.44s-3.7771 13.849-3.1476 26.44h-6.2952z" fill-opacity=".31373" fill-rule="evenodd" stroke="#000" stroke-linejoin="round" stroke-width="4"/>
<path d="m367.87 343.04c-2.2927 3.9731-6.5002 5.8386-9.3968 4.1663-2.8965-1.6723-3.3847-6.2489-1.0903-10.221 2.2927-3.9731 6.5003-5.8386 9.3968-4.1663s3.3847 6.2489 1.0903 10.221z"/>
<path d="m335.13 343.04c2.2927 3.9731 6.5002 5.8386 9.3968 4.1663 2.8965-1.6723 3.3847-6.2489 1.0903-10.221-2.2927-3.9731-6.5003-5.8386-9.3968-4.1663s-3.3847 6.2489-1.0903 10.221z"/>
<path d="m317.52 224.48c5.6568-10.253-6.0104-22.627-6.0104-22.627l17.324-4.2426s-2.4749 15.556 6.7175 21.213" fill="#fc0" fill-rule="evenodd" stroke="#000" stroke-linecap="round" stroke-width="4"/>
<path transform="translate(251.74 323.4)" d="m82.378-127.96a15.38 15.38 0 1 1-30.759 0 15.38 15.38 0 1 1 30.759 0z" fill="#784421" stroke="#000" stroke-linecap="round" stroke-linejoin="round" stroke-width="4"/>
<path d="m418.59 232.5c35.782-4.5675 52.523 16.965 53.837 20.227 1.3131 3.2625-35.125 10.114-53.837-20.227z" fill="#d4aa00" fill-rule="evenodd" stroke="#000" stroke-linejoin="round" stroke-width="4"/>
<path d="m384.69 224.48c-5.6568-10.253 6.0104-22.627 6.0104-22.627l-17.324-4.2426s2.4749 15.556-6.7175 21.213" fill="#fc0" fill-rule="evenodd" stroke="#000" stroke-linecap="round" stroke-width="4"/>
<path transform="translate(315.74 323.4)" d="m82.378-127.96a15.38 15.38 0 1 1-30.759 0 15.38 15.38 0 1 1 30.759 0z" fill="#784421" stroke="#000" stroke-linecap="round" stroke-linejoin="round" stroke-width="4"/>
<path transform="matrix(.72367 .17743 -.32471 1.3244 330.72 54.998)" d="m93.338 349.05a18.031 15.556 0 1 1-36.062 0 18.031 15.556 0 1 1 36.062 0z" fill="#784421"/>
<path transform="matrix(1.3529 0 0 1.6591 231.87 -11.336)" d="m93.338 349.05a18.031 15.556 0 1 1-36.062 0 18.031 15.556 0 1 1 36.062 0z" fill="#784421"/>
<path transform="matrix(.44644 -.14881 .30185 .90556 288.46 217.28)" d="m93.338 349.05a18.031 15.556 0 1 1-36.062 0 18.031 15.556 0 1 1 36.062 0z" fill="#784421"/>
<path transform="matrix(.66667 0 0 .95455 359.08 257.25)" d="m93.338 349.05a18.031 15.556 0 1 1-36.062 0 18.031 15.556 0 1 1 36.062 0z" fill="#784421"/>
<path transform="matrix(1.0588 0 0 1.3636 296.8 35.576)" d="m93.338 349.05a18.031 15.556 0 1 1-36.062 0 18.031 15.556 0 1 1 36.062 0z" fill="#784421"/>
<path transform="matrix(.72549 0 0 1.3636 279.12 -35.448)" d="m93.338 349.05a18.031 15.556 0 1 1-36.062 0 18.031 15.556 0 1 1 36.062 0z" fill="#784421"/>
<path d="m283.46 232.5c-35.782-4.5675-52.523 16.965-53.837 20.227-1.3131 3.2625 35.125 10.114 53.837-20.227z" fill="#d4aa00" fill-rule="evenodd" stroke="#000" stroke-linejoin="round" stroke-width="4"/>
</g>
</svg>